# xmcd
#
# Track frame offsets: 
#        150
#        21143
#        37475
#
# Disc length: 726 seconds
#
# Revision: 0
# Processed by: cddbd v1.4PL0 Copyright (c) Steve Scherf et al.
# Submitted via: ExactAudioCopy v0.90a11
#
DISCID=2302d403
DTITLE=Joe Cocker - Inner City Blues (single edit)
DYEAR=1900
DGENRE=
TTITLE0=Inner City Blues
TTITLE1=There Goes My Baby
TTITLE2=Civilized Man*
EXTD=
EXTT0=
EXTT1=
EXTT2=
PLAYORDER=
